<?xml version="1.0" encoding="utf-8"?>
<!-- Generator: Adobe Illustrator 24.0.2, SVG Export Plug-In . SVG Version: 6.00 Build 0)  -->
<svg version="1.1" id="Layer_1" xmlns:serif="http://www.serif.com/"
	 xmlns="http://www.w3.org/2000/svg" xmlns:xlink="http://www.w3.org/1999/xlink" x="0px" y="0px" viewBox="0 0 1713.7 162.3"
	 style="enable-background:new 0 0 1713.7 162.3;" xml:space="preserve">
<style type="text/css">
	.st0{fill:#4254F4;}
	.st1{fill:#FFFFFF;}
	.st2{display:none;}
	.st3{display:inline;}
	.st4{display:inline;fill:#FFFFFF;}
</style>
<g id="lv">
	<path class="st0" d="M49.4,41H24.3V129c0,11.3-3.9,15.6-9.4,15.6c-4.5,0-8.6-0.8-12.2-1.8l-2.6,17.1c5,1.4,11.2,2.4,19.1,2.4
		c20.8,0,30-12.2,30-32.5L49.4,41L49.4,41z M24.3,27.5h25.3V6.1H24.3V27.5z"/>
	<path class="st0" d="M82.8,70.8c-0.2-1.4-0.3-2.9-0.3-4c0-7.2,5-10.6,15.6-10.6s15.2,5.2,15.2,12.7v6.8
		c-42.8,0.8-57.1,11.3-57.1,29.2c0,15.5,11,22.9,27.7,22.9c18.5,0,29-10,32-13.5h1c0.3,6.4,3.1,13.5,15.9,13.5c5,0,10.5-1,14.3-2.3
		l-1-16.6c-1.5,0.5-2.9,0.6-4.4,0.6c-2.4,0-3.9-1.4-3.9-4.8V70c0-15.9-8.3-30.9-38.6-30.9c-27.1,0-39.4,10.5-39.4,26.7
		c0,1.9,0.2,4.3,0.5,6.3L82.8,70.8z M80.4,101.6c0-7.2,7.1-12.4,32.8-13v12.4c-4.9,5.5-13.1,9.3-21.1,9.3
		C84.6,110.4,80.4,107.9,80.4,101.6z"/>
	<path class="st0" d="M146.7,83.5c0,27.9,15.1,44,45.1,44c35.9,0,39.4-21.1,39.4-29.6c0-1.3,0-2.7-0.3-4.5l-25-0.3
		c0.3,1,0.3,2.1,0.3,2.7c0,5.2-2.8,13.9-15.2,13.9c-12.5,0-18.7-9.2-18.7-26.3c0-20,7-26.6,18.7-26.6c12.3,0,15.2,8.9,15.2,13.9
		c0,0.8,0,1.9-0.3,2.9l25-0.5c0.3-1.9,0.3-3.1,0.3-4.5c0-9.2-3.7-29.6-39.4-29.6C160.4,39.3,146.7,59.5,146.7,83.5z"/>
	<path class="st0" d="M238.5,125.9h25.1V99.6c3.1-1.9,10.1-6.6,13.5-9.2c3.9,4.2,19.8,32.2,23.4,35.4h27.1V123
		c-4.7-3.9-27.3-40.6-31.8-45.9c8.4-7.1,21.1-19.8,30-33.2V41h-27.4c-8.4,13.4-22.7,26.7-34.7,34.8V1.1h-25.1V125.9z"/>
	<path class="st0" d="M331.3,125.9h18.8l3.7-9.3h1c4.1,4.3,11.5,11.1,26.8,11.1c19.1,0,36.5-12.4,36.5-44.5c0-32.2-17.8-44-36.5-44
		c-11.8,0-20,4.8-24.2,9.7h-1V1.1h-25.1L331.3,125.9L331.3,125.9z M356.5,64.5c3.9-4.3,9.9-7.4,15.9-7.4c11.2,0,20.1,5.8,20.1,26.3
		c0,20.3-8.4,26.6-20.1,26.6c-7.1,0-12.8-3.2-15.9-7.2V64.5z"/>
	<path class="st0" d="M420.7,83.5c0,26.7,14.6,44,45.1,44c30,0,45.1-17.4,45.1-44c0-26.9-15.1-44.5-45.1-44.5
		C435.3,39.3,420.7,56.6,420.7,83.5z M465.7,109.8c-12,0-19.6-6.8-19.6-26.3c0-19.8,7.5-26.6,19.6-26.6c11.7,0,19.3,6.8,19.3,26.6
		C485.1,103,477.5,109.8,465.7,109.8z"/>
	<path class="st0" d="M508,125.9h26.8l11.5-17.2c3.1-4.8,5.2-8.2,7.8-13.4h1.3c2.8,5,4.1,7.6,7.6,13l11.8,17.6h26.8v-2.4l-30.7-41.1
		l30.2-38.8V41h-26.8l-10.7,15.5c-3.2,4.8-5.5,8.4-8.4,13.7h-1.3c-2.6-5.3-5.2-9.5-8.3-13.9L535.1,41h-26.8v2.6l29.8,39.5L508,123.5
		V125.9z"/>
	<rect x="605.7" y="99.2" class="st0" width="29" height="26.7"/>
	<path class="st0" d="M650.3,1.1h29v124.5h-29V1.1z"/>
	<path class="st0" d="M713,125.9h27.4l32.9-83.3v-1.8h-25.3l-15.4,45.3c-2.3,6.6-4.1,14.3-5,20.3h-1.8c-1-6-2.9-14-5-20.5
		l-15.4-45.1h-25.3v1.8L713,125.9z"/>
</g>
<g id="modlv">
	<path class="st1" d="M834,56.5c2.3-4.6,5.5-8.4,9.6-11.3c4.2-3,9.6-4.5,16.1-4.6c6.8,0,12,1.5,15.8,4.5c3.8,3,6.3,7,7.5,12.1h1
		c1.5-2.9,3.4-5.6,5.6-8.1c2.3-2.4,5-4.5,8.1-6.1c3.2-1.5,7-2.3,11.3-2.3c7.9,0,13.9,2,18.3,6s6.5,9.9,6.5,17.8c0,1.4-0.1,3-0.3,4.6
		c-0.2,1.6-0.4,3.1-0.7,4.6l-5.1,28.2c-0.1,1-0.2,2.1-0.3,3.3c-0.1,1.2,0.1,2.3,0.7,3.3c0.4,0.9,1.4,1.3,3,1.3c1,0,2-0.2,3.2-0.5
		c1.1-0.2,2.2-0.6,3.2-1.2l-2.5,16.6c-1.2,0.4-2.8,0.9-4.6,1.3c-2,0.3-4,0.6-6,0.8c-2,0.3-3.8,0.5-5.3,0.5c-5.6-0.1-9.8-1.4-12.5-4
		s-4-6-4-10.5c0-1.2,0.1-2.4,0.2-3.5c0.1-1.1,0.3-2.2,0.5-3.3l5.6-32.5c0.1-1.1,0.2-2.2,0.3-3.2c0.1-1.1,0.2-2,0.2-2.8
		c0-3-0.7-5.4-2.2-7.1c-1.6-1.7-3.9-2.5-7.1-2.5c-3.8-0.1-7.4,1.9-10.8,6c-3.5,4.1-6.2,11.1-8,20.9l-7,40.7h-24.4l9.3-52
		c0.1-1.1,0.2-2.2,0.3-3.2c0.2-1.1,0.3-2,0.3-2.8c0-3-0.7-5.4-2.2-7.1c-1.4-1.7-3.7-2.5-6.8-2.5c-3.9-0.1-7.6,1.9-11.1,6
		c-3.5,4.1-6.3,11.1-8.1,20.9l-7.1,40.7h-24.4l10.5-60.1c0.3-1.7,0.3-3.3,0-5c-0.3-1.5-1.6-2.4-3.7-2.5c-1.2,0-2.3,0.2-3.3,0.5
		s-1.8,0.7-2.5,1l1.8-16.6c1.8-0.6,4.1-1.1,7-1.7c2.9-0.4,5.7-0.7,8.5-0.7c5.3,0.1,9.2,1.3,11.6,3.7c2.4,2.4,3.6,5.3,3.5,8.5
		c0,0.6,0,1.2,0,1.8c-0.1,0.7-0.2,1.3-0.3,2H834z"/>
	<path class="st1" d="M946.6,66.5c3.3-8.1,8.4-14.4,15.3-18.9c6.9-4.5,15.4-6.9,25.6-7c8.4,0,15.4,1.4,20.9,4.3
		c5.5,2.8,9.6,6.7,12.3,11.8c2.8,5,4.2,10.8,4.2,17.6c0,10.3-1.8,19.4-5.3,27.4c-3.4,8-8.6,14.2-15.4,18.8c-6.9,4.5-15.4,6.9-25.6,7
		c-8.4-0.1-15.4-1.6-20.9-4.3c-5.4-2.8-9.5-6.6-12.1-11.6s-4-10.8-4-17.4C941.5,83.6,943.2,74.4,946.6,66.5z M994.3,100.8
		c3.7-6,5.5-14.8,5.5-26.6c0-5.5-1.1-9.6-3.3-12.3c-2.2-2.7-5.3-4-9.3-4c-6.8,0.1-11.9,3.2-15.4,9.1c-3.7,6.1-5.5,15-5.5,26.7
		c0.1,5.5,1.2,9.6,3.3,12.1c2.2,2.7,5.3,3.9,9.1,3.8C985.4,109.8,990.6,106.8,994.3,100.8z"/>
	<path class="st1" d="M1079.9,115.9c-1.4,1.4-3.3,3-5.6,4.8c-2.3,1.8-5.2,3.3-8.6,4.6c-3.3,1.2-7.3,1.9-11.8,2
		c-4.4,0-8.6-1.1-12.5-3.3c-3.9-2.3-7-6-9.5-11c-2.4-4.9-3.7-11.3-3.7-19.3c0-9.6,1.2-17.8,3.7-24.6c2.4-6.7,5.6-12.2,9.6-16.4
		c3.9-4.3,8.1-7.5,12.8-9.5c4.6-1.9,9.2-2.8,13.8-2.8c5.5,0.1,10,1.1,13.3,3c3.4,1.9,5.9,4,7.3,6.5h0.8l8.6-46.8h24.4l-17.8,98.6
		c-0.1,1-0.3,2.1-0.5,3.3c-0.1,1.2,0.1,2.3,0.5,3.2c0.4,1,1.4,1.5,3,1.5c1,0,2.1-0.1,3.3-0.3c1.1-0.3,2.1-0.7,3-1.2l-2.5,16.4
		c-1.2,0.4-2.8,0.9-4.6,1.3c-1.9,0.3-3.8,0.6-5.8,0.8c-2,0.3-3.8,0.5-5.5,0.5c-5,0-8.6-1-11-3s-3.7-4.8-4-8.5H1079.9z M1086.9,65.5
		c-1.2-2.1-2.9-3.9-5-5.3c-2-1.3-4.3-2-7-2.2c-3.7,0-7.1,1.2-10.3,3.5c-3.3,2.3-6,6-8,11c-2.1,5-3.2,11.5-3.3,19.4
		c0.1,6.6,1.4,11.3,3.8,13.9c2.4,2.8,5.4,4.1,9,4c2.9,0,5.6-0.7,8.1-2c2.4-1.4,4.5-3.2,6.1-5.1L1086.9,65.5z"/>
	<path class="st1" d="M1125,67.6c3.3-8.2,8.5-14.7,15.4-19.6c7-4.9,15.9-7.4,26.9-7.5c7.1,0,13.2,1.2,18.3,3.5
		c5.1,2.3,9,5.5,11.8,9.6c2.7,4,4,8.6,4,13.9c0,3-0.4,6.3-1.2,10c-0.7,3.5-1.6,6.6-2.8,9.3H1145c-0.3,1.4-0.6,2.8-0.7,4.2
		c-0.1,1.3-0.2,2.6-0.2,3.8c0,5.3,1.1,9.2,3.3,11.6c2.1,2.5,5.3,3.8,9.5,3.8c4.4,0.1,8.2-0.9,11.5-3.2c3.1-2.1,4.7-5.5,4.8-10.3
		l22.4,0.3c-0.1,6.9-1.9,12.5-5.5,16.9c-3.5,4.5-8.2,7.9-14.1,10c-5.9,2.2-12.4,3.3-19.6,3.3c-12.3-0.1-21.4-3-27.4-8.8
		c-5.9-5.8-8.8-13.6-8.8-23.6C1120.2,85,1121.8,75.8,1125,67.6z M1178,73c0.3-0.8,0.6-1.7,0.8-2.7c0.1-1,0.2-2,0.2-3.2
		c0-3.8-1.2-6.5-3.5-8.1s-5.3-2.5-8.8-2.5c-4.5,0-8.5,1.3-12,3.8c-3.3,2.5-5.8,6.8-7.3,12.6H1178z"/>
	<path class="st1" d="M1243.9,64c-2.8,3.8-4.8,9.4-6.1,16.9l-8.1,44.7H1205l10.6-60.1c0.3-1.7,0.3-3.3,0-4.8
		c-0.3-1.7-1.6-2.5-3.8-2.7c-1.1,0-2.2,0.2-3.2,0.5c-1,0.2-1.9,0.6-2.7,1l2-16.6c1.7-0.6,4-1.1,7-1.7c2.9-0.4,5.7-0.7,8.5-0.7
		c5.3,0.1,9.1,1.3,11.3,3.7c2.3,2.3,3.4,5,3.3,8.1c0,0.8-0.1,1.5-0.2,2.2c-0.1,0.7-0.2,1.3-0.3,2h1c1.4-2.8,3.2-5.4,5.1-7.8
		c2.1-2.4,4.6-4.4,7.6-5.8c3-1.5,6.5-2.3,10.5-2.3c4.3,0,7.9,0.9,10.6,2.7c2.8,1.7,4.8,3.9,6.1,6.6c1.3,2.9,2,6,2,9.3
		c-0.1,4.2-0.6,7.7-1.5,10.6c-0.9,3-1.9,5.6-3.2,8l-20.6-1.2c0.8-2.1,1.4-4,1.8-5.6c0.4-1.8,0.7-3.5,0.7-5.1c0-2.1-0.5-3.9-1.5-5.3
		c-0.9-1.3-2.3-2-4.2-2.2C1249.3,58.3,1246.5,60.2,1243.9,64z"/>
	<path class="st1" d="M1282.4,67.6c3.3-8.2,8.5-14.7,15.4-19.6c7-4.9,15.9-7.4,26.9-7.5c7.1,0,13.2,1.2,18.3,3.5
		c5.1,2.3,9,5.5,11.8,9.6c2.7,4,4,8.6,4,13.9c0,3-0.4,6.3-1.2,10c-0.7,3.5-1.6,6.6-2.8,9.3h-52.5c-0.3,1.4-0.6,2.8-0.7,4.2
		c-0.1,1.3-0.2,2.6-0.2,3.8c0,5.3,1.1,9.2,3.3,11.6c2.1,2.5,5.3,3.8,9.5,3.8c4.4,0.1,8.2-0.9,11.5-3.2c3.1-2.1,4.7-5.5,4.8-10.3
		l22.4,0.3c-0.1,6.9-1.9,12.5-5.5,16.9c-3.5,4.5-8.2,7.9-14.1,10c-5.9,2.2-12.4,3.3-19.6,3.3c-12.3-0.1-21.4-3-27.4-8.8
		c-5.9-5.8-8.8-13.6-8.8-23.6C1277.6,85,1279.2,75.8,1282.4,67.6z M1319.1,28.5h-21.6l3.3-19.8h21.7h19.1h21.7l-3.7,19.8h-21.6
		H1319.1z M1335.3,73c0.3-0.8,0.6-1.7,0.8-2.7c0.1-1,0.2-2,0.2-3.2c0-3.8-1.2-6.5-3.5-8.1s-5.3-2.5-8.8-2.5c-4.5,0-8.5,1.3-12,3.8
		c-3.3,2.5-5.8,6.8-7.3,12.6H1335.3z"/>
	<path class="st1" d="M1380.6,97.2c-0.2,0.8-0.4,1.6-0.5,2.3c-0.1,0.8-0.2,1.7-0.2,2.7c-0.1,2.3,0.8,4.3,2.7,5.8
		c2,1.7,5.6,2.5,11,2.5c5.1,0,8.9-0.8,11.3-2.3c2.4-1.5,3.7-3.6,3.7-6.1c0-2-0.8-3.5-2.3-4.6c-1.7-1.2-4-2.2-7-2.8l-10.1-2.8
		c-8.1-2-14.1-4.8-18.1-8.3c-4.1-3.5-6.1-8.2-6.1-14.1c0-5.6,1.5-10.6,4.5-14.9c2.9-4.2,7.3-7.6,13.3-10.1
		c5.9-2.4,13.3-3.7,22.2-3.7c9,0.1,15.8,1.3,20.6,3.5c4.8,2.3,8,5.1,9.6,8.3c1.8,3.2,2.6,6.4,2.5,9.5c0,1.1-0.1,2.4-0.3,3.8
		c-0.2,1.3-0.5,2.6-0.8,3.8l-21.6,0.3c0.3-0.8,0.6-1.5,0.7-2.3c0.1-0.9,0.2-1.7,0.2-2.5c0.1-1.7-0.7-3.3-2.5-5
		c-1.8-1.5-5-2.4-9.6-2.5c-5,0.1-8.7,0.9-11.1,2.5c-2.3,1.7-3.5,3.7-3.5,6.1c0,2.7,1,4.5,3,5.5s4.4,1.8,7.1,2.3l11.3,2.8
		c7.7,1.9,13.5,4.6,17.3,8.3c3.8,3.7,5.6,8.1,5.6,13.3c0.1,5.3-1.2,10.1-4,14.4c-2.7,4.3-7,7.8-12.9,10.5c-6.1,2.7-14.1,4-24.1,4.2
		c-9.1-0.1-16.2-1.3-21.3-3.7c-5-2.3-8.5-5.2-10.6-8.6c-2-3.3-2.9-6.7-2.8-10.1c0-1.1,0.1-2.3,0.2-3.5c0.2-1.3,0.6-2.7,1-4
		L1380.6,97.2z M1441,8.4l-19.3,22.1h-29.7l-11.6-22.1l0.3-1.8h18.1l8.6,13.6h0.8l13.3-13.6h19.6L1441,8.4z"/>
	<path class="st1" d="M1453.1,124.1c-4.1-2.3-7.4-6-9.8-11c-2.5-4.9-3.8-11.3-3.8-19.3c0.1-10.6,1.9-19.9,5.5-27.9
		c3.7-8,8.5-14.2,14.4-18.6c6-4.5,12.6-6.8,19.8-6.8c4.5,0,8.3,0.6,11.3,1.8c3,1.2,5.4,2.7,7.3,4.5c1.8,1.8,3.2,3.6,4.3,5.5h1.2
		l5-10.1h18.4l-10.6,59.6c-0.2,0.9-0.4,2-0.5,3.3c-0.1,1.2,0.1,2.3,0.5,3.3c0.4,1,1.4,1.5,3,1.5c1.1,0,2.2-0.2,3.3-0.5
		c1.1-0.3,2.1-0.7,3-1.2l-2.5,16.4c-1.2,0.4-2.8,0.9-4.6,1.3c-1.9,0.3-3.8,0.6-5.8,0.8c-2,0.3-3.8,0.5-5.5,0.5c-5,0-8.6-1-11-3
		s-3.7-4.8-4-8.5h-0.8c-1.4,1.4-3.3,3-5.6,4.8c-2.3,1.8-5.1,3.3-8.3,4.6c-3.1,1.2-6.8,1.9-11,2
		C1461.5,127.4,1457.1,126.3,1453.1,124.1z M1498.1,65.5c-0.9-1.9-2.2-3.6-4-5.1c-1.9-1.4-4.4-2.2-7.5-2.3c-3.5,0-6.9,1.4-10.1,4.2
		c-3.2,2.7-5.9,6.6-8,12c-2,5.2-3,11.6-3.2,19.1c0.1,6.1,1.3,10.4,3.7,12.9c2.3,2.5,5.2,3.8,8.6,3.7c3,0,5.6-0.7,8-2
		c2.3-1.4,4.3-3.2,6-5.1L1498.1,65.5z"/>
	<path class="st1" d="M1567.6,56.5c2.3-4.6,5.6-8.4,9.8-11.3c4.2-3,9.6-4.5,16.1-4.6c8,0,14.1,2,18.4,6s6.5,9.9,6.5,17.8
		c0,1.4-0.1,3-0.2,4.6c-0.2,1.6-0.4,3.1-0.7,4.6l-5,28.2c-0.1,1-0.2,2.1-0.3,3.3c-0.1,1.2,0.1,2.3,0.5,3.2c0.4,1,1.4,1.5,3,1.5
		c1.1,0,2.2-0.2,3.2-0.5c1.1-0.2,2.1-0.6,3-1.2l-2.5,16.6c-1.2,0.4-2.8,0.9-4.6,1.3c-1.9,0.3-3.8,0.6-5.8,0.8
		c-2,0.3-3.8,0.5-5.3,0.5c-5.8-0.1-10-1.4-12.6-4s-3.9-6.1-3.8-10.6c0-1.1,0.1-2.3,0.2-3.5c0.1-1.1,0.3-2.2,0.5-3.3l5.6-32.4
		c0.1-1.1,0.2-2.2,0.3-3.3c0.1-1,0.2-1.9,0.2-2.7c0-3.1-0.8-5.5-2.3-7.1c-1.6-1.7-4-2.5-7.3-2.5c-3.8-0.1-7.5,1.9-11.1,6
		c-3.5,4.1-6.3,11.1-8.1,20.9l-7.1,40.7h-24.6l10.6-60.1c0.3-1.7,0.3-3.3,0-4.8c-0.3-1.7-1.6-2.5-3.8-2.7c-1.1,0-2.2,0.2-3.2,0.5
		s-1.9,0.7-2.7,1l2-16.6c1.7-0.6,3.9-1.1,6.8-1.7c3-0.4,5.9-0.7,8.6-0.7c5.3,0.1,9.1,1.3,11.5,3.7c2.4,2.4,3.7,5.3,3.7,8.5
		c0,0.6-0.1,1.2-0.2,1.8c0,0.7-0.1,1.3-0.2,2H1567.6z"/>
	<path class="st1" d="M1640.2,124.1c-4.1-2.3-7.4-6-9.8-11c-2.5-4.9-3.8-11.3-3.8-19.3c0.1-10.6,1.9-19.9,5.5-27.9
		c3.7-8,8.5-14.2,14.4-18.6c6-4.5,12.6-6.8,19.8-6.8c4.5,0,8.3,0.6,11.3,1.8c3,1.2,5.4,2.7,7.3,4.5c1.8,1.8,3.2,3.6,4.3,5.5h1.2
		l5-10.1h18.4l-10.6,59.6c-0.2,0.9-0.4,2-0.5,3.3c-0.1,1.2,0.1,2.3,0.5,3.3c0.4,1,1.4,1.5,3,1.5c1.1,0,2.2-0.2,3.3-0.5
		c1.1-0.3,2.1-0.7,3-1.2l-2.5,16.4c-1.2,0.4-2.8,0.9-4.6,1.3c-1.9,0.3-3.8,0.6-5.8,0.8c-2,0.3-3.8,0.5-5.5,0.5c-5,0-8.6-1-11-3
		s-3.7-4.8-4-8.5h-0.8c-1.4,1.4-3.3,3-5.6,4.8c-2.3,1.8-5.1,3.3-8.3,4.6c-3.1,1.2-6.8,1.9-11,2
		C1648.5,127.4,1644.1,126.3,1640.2,124.1z M1685.2,65.5c-0.9-1.9-2.2-3.6-4-5.1c-1.9-1.4-4.4-2.2-7.5-2.3c-3.5,0-6.9,1.4-10.1,4.2
		c-3.2,2.7-5.9,6.6-8,12c-2,5.2-3,11.6-3.2,19.1c0.1,6.1,1.3,10.4,3.7,12.9c2.3,2.5,5.2,3.8,8.6,3.7c3,0,5.6-0.7,8-2
		c2.3-1.4,4.3-3.2,6-5.1L1685.2,65.5z"/>
</g>
<g id="org" class="st2">
	<g transform="matrix(1,0,0,1,-105.42,-12.32)">
		<g class="st3">
			<g>
				<path class="st0" d="M154.5,52.4h-25.1v88.5c0,11.3-3.8,15.7-9.4,15.7c-4.5,0-8.6-0.9-12.2-1.7l-2.4,17.3
					c5.1,1.4,11.2,2.4,19.2,2.4c20.8,0,30-12.4,30-32.8L154.5,52.4L154.5,52.4z M129.4,38.8h25.3V17.4h-25.3V38.8z"/>
				<path class="st0" d="M188,82.5c-0.2-1.4-0.3-3-0.3-4c0-7.3,5.1-10.6,15.5-10.6c10.5,0,15.2,5.2,15.2,12.7v6.8
					c-42.8,0.9-57.1,11.3-57.1,29.3c0,15.5,11,23,27.8,23c18.5,0,29-10.1,31.9-13.6h1c0.3,6.5,3.1,13.6,15.9,13.6
					c5.1,0,10.5-1,14.3-2.3l-1-16.8c-1.4,0.5-3,0.7-4.4,0.7c-2.4,0-3.8-1.4-3.8-4.9V81.7c0-16.1-8.2-31.1-38.6-31.1
					c-27.1,0-39.4,10.5-39.4,26.9c0,1.9,0.2,4.4,0.5,6.3L188,82.5z M185.6,113.5c0-7.3,7.2-12.6,32.8-13.1V113
					c-4.9,5.6-13.1,9.4-21.1,9.4C189.8,122.4,185.6,119.8,185.6,113.5z"/>
				<path class="st0" d="M251.9,95.4c0,28.1,15,44.3,45,44.3c35.8,0,39.4-21.3,39.4-29.8c0-1.2,0-2.8-0.3-4.5l-25-0.3
					c0.3,1,0.3,2.1,0.3,2.8c0,5.2-2.8,14-15.2,14s-18.7-9.3-18.7-26.4c0-20.1,7-26.7,18.7-26.7c12.4,0,15.2,8.9,15.2,14
					c0,0.9,0,1.9-0.3,3l25-0.5c0.3-1.9,0.3-3.1,0.3-4.5c0-9.3-3.7-29.8-39.4-29.8C265.5,50.7,251.9,71.1,251.9,95.4z"/>
				<path class="st0" d="M343.7,138h25.1v-26.4c3.1-1.9,10.1-6.6,13.4-9.3c3.8,4.2,19.7,32.5,23.4,35.6h27.1v-3
					c-4.7-3.8-27.2-40.8-31.8-46.3c8.4-7.2,21.1-19.9,30-33.3v-3h-27.4c-8.4,13.4-22.7,26.9-34.7,35.1V12.3h-25.1V138z"/>
				<path class="st0" d="M436.4,138h18.9l3.7-9.4h1c4,4.4,11.5,11.2,26.7,11.2c19.2,0,36.5-12.6,36.5-44.7
					c0-32.5-17.8-44.3-36.5-44.3c-11.9,0-19.9,4.9-24.1,9.8h-1V12.3h-25.1V138H436.4z M461.5,76.2c3.8-4.4,9.9-7.5,15.9-7.5
					c11.2,0,20.1,5.8,20.1,26.4c0,20.4-8.4,26.7-20.1,26.7c-7.2,0-12.7-3.3-15.9-7.3V76.2z"/>
				<path class="st0" d="M525.8,95.4c0,26.9,14.7,44.3,45,44.3c30,0,45-17.5,45-44.3c0-27.1-15-44.7-45-44.7
					C540.4,50.7,525.8,68.3,525.8,95.4z M570.8,121.7c-12,0-19.5-6.8-19.5-26.4c0-19.9,7.5-26.7,19.5-26.7
					c11.7,0,19.4,6.8,19.4,26.7C590.2,114.9,582.5,121.7,570.8,121.7z"/>
				<path class="st0" d="M613,138h26.8l11.5-17.3c3.1-4.9,5.2-8.2,7.9-13.4h1.2c2.8,5.1,4,7.7,7.7,13.1L680,138h26.7v-2.4L676,94.2
					l30.2-39.1v-2.7h-26.7l-10.6,15.5c-3.3,4.9-5.6,8.4-8.4,13.8h-1.2c-2.6-5.4-5.2-9.6-8.2-14l-10.6-15.3h-26.7V55l29.8,39.8
					l-30.5,40.7L613,138L613,138z"/>
				<rect x="710.6" y="111.1" class="st0" width="29" height="26.9"/>
				<path class="st0" d="M757,112.1c0,19,8.6,27.6,28.5,27.6c9.3,0,19.4-1.6,26.4-4l-1.6-19.9c-5.9,2.6-12,4.4-17.1,4.4
					c-8.2,0-11-3.5-11-11.3V68h29V52.4h-29V33.1H762l-3.2,19.3h-17.5v15.5H757V112.1z"/>
				<path class="st0" d="M840.8,138h27.4l33-83.8v-1.8h-25.3L860.5,98c-2.3,6.6-4,14.5-5.1,20.4h-1.9c-1-5.9-3-14.1-5.1-20.6
					l-15.3-45.4h-25.3v1.7L840.8,138z"/>
			</g>
		</g>
	</g>
	<path class="st4" d="M855,56.6c4.6-9,12.6-16,25.7-16c13.6,0,20.7,6.6,23.3,16.7h1c4.6-8.5,12.1-16.7,25-16.7
		c15.6,0,24.8,8.2,24.8,23.8c0,2.9-0.5,6.3-1,9.2l-5.1,28.2c-0.5,2.9-1.4,8,3.2,8c2,0,4.4-0.7,6.3-1.7l-2.4,16.7
		c-3.7,1.2-11.4,2.5-16,2.5c-11.4,0-16.5-5.6-16.5-14.5c0-2.4,0.3-4.6,0.7-6.8l5.6-32.5c0.3-2,0.5-4.4,0.5-6c0-5.9-2.7-9.5-9.2-9.5
		c-7.3,0-15.5,6.8-18.9,26.9l-7,40.6h-24.2l9.2-52c0.3-2,0.7-4.4,0.7-6c0-5.9-2.5-9.5-9-9.5c-7.3,0-15.6,6.8-19.2,26.9l-7.1,40.6
		h-24.6l10.5-60c0.5-3.2,0.8-7.5-3.7-7.5c-2.2,0-4.4,0.7-5.8,1.5l1.9-16.7c3.2-1.2,10.2-2.4,15.5-2.4c10.7,0,15.1,6,15.1,12.2
		c0,1-0.2,2.5-0.3,3.7h1V56.6z"/>
	<path class="st4" d="M1007.3,40.6c25.2,0,37.2,13.8,37.2,33.7c0,30.8-15.8,53-46.2,53c-25.3,0-37.1-13.6-37.1-33.3
		C961.3,63.3,976.6,40.6,1007.3,40.6z M1019.6,74.3c0-11-4.8-16.1-12.6-16.1c-13.6,0-20.9,12.4-20.9,35.7c0,11,4.8,16,12.4,16
		C1011.8,109.8,1019.6,97.8,1019.6,74.3z"/>
	<path class="st4" d="M1100.2,116c-4.4,4.2-12.4,11.4-26,11.4c-13.3,0-25.7-9.5-25.7-33.5c0-38.2,22.1-53.2,40-53.2
		c11,0,17.5,4.8,20.6,9.5h0.8l8.5-46.9h24.5l-17.7,98.6c-0.5,2.7-1.7,8,2.9,8c2,0,4.6-0.7,6.3-1.5l-2.4,16.5
		c-3.6,1.2-11.2,2.5-16,2.5c-10,0-14.1-4.1-15-11.4C1101,116,1100.2,116,1100.2,116z M1107.2,65.6c-2.4-4.2-6.8-7.5-11.9-7.5
		c-10.7,0-21.6,9.7-21.6,33.8c0,13.3,5.9,17.8,12.8,17.8c5.8,0,11-3.2,14.3-7.1L1107.2,65.6z"/>
	<path class="st4" d="M1186.3,40.6c21.4,0,34.2,11.4,34.2,27c0,5.8-1.7,14.3-3.9,19.2h-52.5c-0.7,3.1-0.8,5.4-0.8,8
		c0,10.5,4.4,15.5,12.8,15.5c8.7,0,16.3-3.9,16.3-13.4l22.4,0.3c0,20.6-18,30.1-39.3,30.1c-24.7,0-36.2-12.6-36.2-32.3
		C1139.2,65.3,1153.5,40.6,1186.3,40.6z M1197,72.9c0.7-1.5,1-3.6,1-5.8c0-7.6-5.4-10.5-12.2-10.5c-9.2,0-16.3,4.6-19.4,16.3
		C1166.4,72.9,1197,72.9,1197,72.9z"/>
	<path class="st4" d="M1257.8,80.9l-8.2,44.7h-24.5l10.5-60c0.5-3.1,0.8-7.5-3.7-7.5c-2.2,0-4.4,0.7-5.8,1.5l1.9-16.7
		c3.2-1.2,10.2-2.4,15.5-2.4c10.7,0,14.6,6,14.6,11.9c0,1.4-0.2,2.9-0.5,4.1h1c4.2-8.2,11-16,23.3-16c12.9,0,18.7,8.7,18.7,18.7
		c0,8.5-2.2,13.8-4.6,18.5l-20.6-1.2c1.4-4.1,2.4-7.3,2.4-10.7c0-4.2-1.9-7.5-5.6-7.5C1266.6,58.5,1260.4,66,1257.8,80.9z"/>
	<path class="st4" d="M1299.9,93.9c0-31.4,18.4-53.2,39.8-53.2c13.8,0,19.5,6.5,23,11.7h1l5.1-10h18.4l-10.5,59.5
		c-0.5,2.5-1.7,8.2,2.9,8.2c2.2,0,4.6-0.9,6.3-1.7l-2.4,16.5c-3.6,1.2-11.2,2.5-16,2.5c-10,0-14.1-4.1-15-11.4h-0.8
		c-4.4,4.2-12.4,11.4-24.8,11.4C1312.6,127.3,1299.9,117.8,1299.9,93.9z M1358.5,65.6c-1.7-3.7-5.3-7.5-11.4-7.5
		c-10.5,0-21.2,12.6-21.2,35c0,12.4,5.6,16.7,12.2,16.7c5.9,0,10.7-3.2,13.9-7.1L1358.5,65.6z"/>
	<path class="st4" d="M1405.2,57.5h-13.6l2.7-15.1h16.3l8.5-18.9h16.3l-3.2,18.9h25l-2.5,15.1h-25l-7,39.8c-1.2,6.5-0.3,11,7.1,11
		c4.4,0,9.7-1.7,16-4.8l-2.4,19.5c-6.5,2.4-13.8,4.2-22.4,4.2c-15.5,0-24-8.3-24-19.5c0-2.7,0.3-5.8,0.8-8.3L1405.2,57.5z"/>
	<path class="st4" d="M1498.3,40.6c25.2,0,37.2,13.8,37.2,33.7c0,30.8-15.8,53-46.2,53c-25.3,0-37.1-13.6-37.1-33.3
		C1452.2,63.3,1467.5,40.6,1498.3,40.6z M1510.5,74.3c0-11-4.8-16.1-12.6-16.1c-13.6,0-20.9,12.4-20.9,35.7c0,11,4.8,16,12.4,16
		C1502.7,109.8,1510.5,97.8,1510.5,74.3z"/>
	<path class="st4" d="M1573,80.9l-8.2,44.7h-24.5l10.5-60c0.5-3.1,0.8-7.5-3.7-7.5c-2.2,0-4.4,0.7-5.8,1.5l1.9-16.7
		c3.2-1.2,10.2-2.4,15.5-2.4c10.7,0,14.6,6,14.6,11.9c0,1.4-0.2,2.9-0.5,4.1h1c4.2-8.2,11-16,23.3-16c12.9,0,18.7,8.7,18.7,18.7
		c0,8.5-2.2,13.8-4.6,18.5l-20.6-1.2c1.4-4.1,2.4-7.3,2.4-10.7c0-4.2-1.9-7.5-5.6-7.5C1581.8,58.5,1575.5,66,1573,80.9z"/>
</g>
</svg>
